<svg width="32" height="32" viewBox="0 0 32 32" fill="none" xmlns="http://www.w3.org/2000/svg">
<g clip-path="url(#clip0_4413_888)">
<path opacity="0.2" d="M10.0001 15.9981C10.0001 14.0202 10.5866 12.0868 11.6854 10.4423C12.7842 8.79786 14.346 7.51613 16.1732 6.75926C18.0005 6.00238 20.0112 5.80435 21.951 6.1902C23.8908 6.57605 25.6726 7.52846 27.0711 8.92698C28.4697 10.3255 29.4221 12.1073 29.8079 14.0471C30.1938 15.987 29.9957 17.9976 29.2389 19.8249C28.482 21.6521 27.2003 23.2139 25.5558 24.3127C23.9113 25.4116 21.9779 25.9981 20.0001 25.9981H9.00006C8.00736 25.9971 7.02621 25.785 6.12175 25.3758C5.21728 24.9667 4.41019 24.3698 3.75403 23.6249C3.09788 22.88 2.60767 22.004 2.31595 21.0551C2.02422 20.1063 1.93765 19.1062 2.06199 18.1213C2.18633 17.1364 2.51872 16.1892 3.03711 15.3426C3.55551 14.496 4.24804 13.7694 5.06874 13.2109C5.88945 12.6524 6.81955 12.2749 7.79732 12.1033C8.7751 11.9318 9.77817 11.9702 10.74 12.216" fill="#0A65CC"/>
<path d="M11.9993 25.998H8.99933C8.00663 25.9971 7.02548 25.785 6.12102 25.3758C5.21655 24.9667 4.40946 24.3698 3.7533 23.6249C3.09715 22.88 2.60694 22.004 2.31521 21.0551C2.02349 20.1063 1.93692 19.1062 2.06126 18.1213C2.18559 17.1364 2.51799 16.1892 3.03638 15.3426C3.55477 14.496 4.2473 13.7694 5.06801 13.2109C5.88871 12.6524 6.81882 12.2749 7.79659 12.1033C8.77436 11.9318 9.77744 11.9702 10.7392 12.216" stroke="#0A65CC" stroke-width="2" stroke-linecap="round" stroke-linejoin="round"/>
<path d="M9.99927 15.998C9.99942 14.4136 10.3761 12.8518 11.0982 11.4415C11.8203 10.0312 12.8672 8.81262 14.1527 7.88625C15.4381 6.95988 16.9253 6.35221 18.4916 6.11333C20.0579 5.87445 21.6586 6.01118 23.1618 6.51227C24.6649 7.01335 26.0275 7.86445 27.1372 8.99541C28.2468 10.1264 29.0719 11.5048 29.5444 13.0172C30.0168 14.5296 30.1231 16.1326 29.8546 17.6941C29.586 19.2557 28.9502 20.731 27.9996 21.9986" stroke="#0A65CC" stroke-width="2" stroke-linecap="round" stroke-linejoin="round"/>
<path d="M14.7566 20.2408L18.9992 15.998L23.2418 20.2408" stroke="#0A65CC" stroke-width="2" stroke-linecap="round" stroke-linejoin="round"/>
<path d="M18.9993 25.998V15.998" stroke="#0A65CC" stroke-width="2" stroke-linecap="round" stroke-linejoin="round"/>
</g>
<defs>
<clipPath id="clip0_4413_888">
<rect width="32" height="32" fill="white"/>
</clipPath>
</defs>
</svg>
